<svg width="48" height="48" viewBox="0 0 48 48" fill="none" xmlns="http://www.w3.org/2000/svg">
<g filter="url(#filter0_b_162_3189)">
<rect width="48" height="48" rx="24" fill="#484946" fill-opacity="0.24"/>
<g clip-path="url(#clip0_162_3189)">
<path d="M12.4594 25.9824C12.4594 25.9824 11.4724 25.0691 12.3857 24.0764C13.2989 23.0894 14.2916 24.0027 14.2916 24.0027L18.8806 28.2513C18.8068 28.1833 19.1982 27.6274 19.1415 27.5763L12.7714 21.6827C12.7714 21.6827 11.7844 20.7694 12.6976 19.7767C13.6166 18.7897 14.6036 19.703 14.6036 19.703L20.5937 25.2506C20.5937 25.2506 21.0248 24.7344 21.0191 24.7231L14.076 18.2962C14.076 18.2962 13.089 17.383 14.0023 16.3903C14.9212 15.4033 15.9082 16.3166 15.9082 16.3166L22.8513 22.7491C22.8513 22.7491 23.3334 22.2783 23.3504 22.2896L16.8555 16.2825C16.8555 16.2825 15.8685 15.3693 16.7818 14.3766C17.695 13.3896 18.6877 14.3029 18.6877 14.3029L25.5513 20.6616C27.5821 22.5449 28.0415 22.0514 28.0415 22.0514L26.2093 20.3497L24.0879 18.387C24.0879 18.387 23.1009 17.4737 24.0141 16.4811C24.9274 15.4941 25.9201 16.4073 25.9201 16.4073L31.3542 21.4444C34.6272 24.4792 34.8258 29.59 31.791 32.8687C28.7563 36.1417 23.6397 36.3402 20.3668 33.3055C20.1909 33.1466 19.8846 32.8347 19.8959 32.8176L19.8733 32.846L12.4594 25.9824Z" fill="#484946"/>
<path d="M14.518 24.6043C14.518 24.6043 13.531 23.691 14.4443 22.6983C15.3575 21.7113 16.3502 22.6246 16.3502 22.6246L20.9392 26.8789C20.8654 26.8108 21.2568 26.2549 21.2001 26.2039L14.83 20.2989C14.83 20.2989 13.843 19.3856 14.7562 18.393C15.6695 17.4003 16.6622 18.3192 16.6622 18.3192L22.6522 23.8668C22.6522 23.8668 23.0834 23.3506 23.0777 23.3393L16.129 16.9125C16.129 16.9125 15.142 15.9992 16.0552 15.0065C16.9685 14.0139 17.9612 14.9328 17.9612 14.9328L24.9042 21.3653C24.9042 21.3653 25.3864 20.8945 25.4034 20.9115L18.9141 14.8987C18.9141 14.8987 17.9271 13.9855 18.8404 12.9928C19.7536 12.0058 20.7463 12.9191 20.7463 12.9191L27.6099 19.2779C29.6407 21.1611 30.1001 20.6676 30.1001 20.6676L28.2623 18.9659L26.1465 17.0032C26.1465 17.0032 25.1595 16.09 26.0727 15.0973C26.986 14.1103 27.9786 15.0235 27.9786 15.0235L33.4128 20.0606C36.6858 23.0954 36.8843 28.2062 33.8496 31.4849C30.8149 34.7579 25.6983 34.9564 22.4254 31.9217C22.2495 31.7628 21.9432 31.4509 21.9545 31.4395L21.9319 31.4679L14.518 24.5986V24.6043Z" fill="#B4B5B1"/>
</g>
</g>
<defs>
<filter id="filter0_b_162_3189" x="-50" y="-50" width="148" height="148" filterUnits="userSpaceOnUse" color-interpolation-filters="sRGB">
<feFlood flood-opacity="0" result="BackgroundImageFix"/>
<feGaussianBlur in="BackgroundImageFix" stdDeviation="25"/>
<feComposite in2="SourceAlpha" operator="in" result="effect1_backgroundBlur_162_3189"/>
<feBlend mode="normal" in="SourceGraphic" in2="effect1_backgroundBlur_162_3189" result="shape"/>
</filter>
<clipPath id="clip0_162_3189">
<rect width="24" height="22.9222" fill="white" transform="translate(12 12.5391)"/>
</clipPath>
</defs>
</svg>
